<svg viewBox="0 0 100 100" fill="none" xmlns="http://www.w3.org/2000/svg">
  <!-- Color wheel segments (shifted down slightly) -->
  <g transform="translate(50,55)">
    <path d="M0 0 L0 -36 A36 36 0 0 1 31.2 -18 Z" fill="#f59e0b"/>
    <path d="M0 0 L31.2 -18 A36 36 0 0 1 31.2 18 Z" fill="#c45e8a"/>
    <path d="M0 0 L31.2 18 A36 36 0 0 1 0 36 Z" fill="#9b7fe8"/>
    <path d="M0 0 L0 36 A36 36 0 0 1 -31.2 18 Z" fill="#3dbf8a"/>
    <path d="M0 0 L-31.2 18 A36 36 0 0 1 -31.2 -18 Z" fill="#5b8ef5"/>
    <path d="M0 0 L-31.2 -18 A36 36 0 0 1 0 -36 Z" fill="#e85b5b"/>
    <!-- Center -->
    <circle cx="0" cy="0" r="14" fill="#0a0612"/>
    <circle cx="0" cy="0" r="4" fill="#c45e8a"/>
  </g>
  <!-- Gold crown (top-right) -->
  <g transform="translate(60, 0)">
    <path d="M2 20 L2 12 L8 18 L14 6 L20 18 L26 12 L26 20 Z" fill="#f0c040"/>
    <rect x="2" y="20" width="24" height="5" rx="1" fill="#f0c040"/>
    <circle cx="14" cy="10" r="2" fill="#fff8e0"/>
    <circle cx="5" cy="15" r="1.5" fill="#fff8e0"/>
    <circle cx="23" cy="15" r="1.5" fill="#fff8e0"/>
  </g>
</svg>
