<svg viewBox="0 0 100 100" fill="none" xmlns="http://www.w3.org/2000/svg">
  <!-- Main bubble -->
  <rect x="4" y="12" width="62" height="44" rx="12" fill="#5b8ef5"/>
  <path d="M18 56 L10 76 L38 62" fill="#5b8ef5"/>
  <!-- Bubble lines -->
  <rect x="14" y="24" width="34" height="5" rx="2.5" fill="white" opacity="0.9"/>
  <rect x="14" y="35" width="24" height="5" rx="2.5" fill="white" opacity="0.6"/>
  <!-- Reply bubble -->
  <rect x="46" y="52" width="46" height="34" rx="8" fill="#3b6fd4"/>
  <rect x="54" y="62" width="22" height="4" rx="2" fill="white" opacity="0.8"/>
  <rect x="54" y="70" width="15" height="4" rx="2" fill="white" opacity="0.5"/>
  <!-- Gold crown (top-right) -->
  <g transform="translate(62, 0)">
    <path d="M2 20 L2 12 L8 18 L14 6 L20 18 L26 12 L26 20 Z" fill="#f0c040"/>
    <rect x="2" y="20" width="24" height="5" rx="1" fill="#f0c040"/>
    <circle cx="14" cy="10" r="2" fill="#fff8e0"/>
    <circle cx="5" cy="15" r="1.5" fill="#fff8e0"/>
    <circle cx="23" cy="15" r="1.5" fill="#fff8e0"/>
  </g>
</svg>
